<svg width="172" height="60" fill="none" xmlns="http://www.w3.org/2000/svg"><path d="M88.976 34.516c1.632.264 2.88.804 3.744 1.62.864.792 1.296 1.716 1.296 2.772 0 1.176-.552 2.328-1.656 3.456-1.08 1.128-2.58 2.052-4.5 2.772-1.896.696-3.984 1.044-6.264 1.044-.696 0-1.5-.276-2.412-.828a10.61 10.61 0 01-2.304-1.908c-.624-.744-.936-1.368-.936-1.872 0-.456.516-3.096 1.548-7.92.768-3.6 1.272-6.084 1.512-7.452l-1.26.18c-.792-.84-1.188-1.788-1.188-2.844 0-.768.216-1.5.648-2.196 2.088-.48 3.852-.72 5.292-.72 2.184 0 4.212.348 6.084 1.044 1.872.696 3.36 1.62 4.464 2.772 1.104 1.152 1.656 2.388 1.656 3.708 0 1.32-.504 2.568-1.512 3.744-.984 1.152-2.388 2.028-4.212 2.628zm-5.868-1.728c2.064-.288 3.636-.804 4.716-1.548 1.104-.768 1.656-1.656 1.656-2.664 0-.696-.384-1.284-1.152-1.764-.744-.504-1.728-.756-2.952-.756-.504 0-.9.024-1.188.072-.168 1.08-.288 1.824-.36 2.232a91.16 91.16 0 01-.72 4.428zm-1.836 9.036c2.184-.144 3.816-.552 4.896-1.224 1.104-.672 1.656-1.5 1.656-2.484 0-.552-.216-1.02-.648-1.404-.408-.384-1.044-.624-1.908-.72-.744-.048-1.548 0-2.412.144l-.216.792c-.624 2.112-1.08 3.744-1.368 4.896zm23.302-16.164c1.704.192 3.252.708 4.644 1.548 1.416.816 2.52 1.8 3.312 2.952.792 1.152 1.188 2.304 1.188 3.456 0 1.728-.444 3.564-1.332 5.508-.888 1.944-2.124 3.576-3.708 4.896-1.584 1.32-3.348 1.98-5.292 1.98-.96 0-1.98-.348-3.06-1.044a10.84 10.84 0 01-2.736-2.592c-.72-1.032-1.08-1.944-1.08-2.736 0-1.464.18-2.964.54-4.5.36-1.56.912-3.072 1.656-4.536.696-.384 1.392-.576 2.088-.576.312 0 .6.036.864.108a3.191 3.191 0 01-.144-1.008c0-.768.264-1.464.792-2.088.552-.624 1.308-1.08 2.268-1.368zm-2.484 16.236c1.992-.672 3.54-1.824 4.644-3.456s1.836-3.576 2.196-5.832c-1.08-.768-2.544-1.152-4.392-1.152-.456 0-.804.012-1.044.036.264.48.396 1.02.396 1.62a12.238 12.238 0 00-1.44 3.276 12.914 12.914 0 00-.504 3.564c0 .72.048 1.368.144 1.944zM120.873 46c-.648 0-1.356-.204-2.124-.612a9.057 9.057 0 01-1.98-1.476c-.552-.576-.828-1.056-.828-1.44 0-.456.096-1.044.288-1.764.192-.744.48-1.704.864-2.88a74.05 74.05 0 00.864-2.916c.192-.744.288-1.344.288-1.8 0-.192-.108-.396-.324-.612a12.243 12.243 0 00-1.008-.864 16.817 16.817 0 01-1.152-1.008c-.24-.24-.36-.48-.36-.72 0-.504.24-1.092.72-1.764a7.712 7.712 0 011.692-1.728c.648-.48 1.2-.72 1.656-.72.504 0 1.08.228 1.728.684a8.182 8.182 0 011.692 1.584c.48.576.72 1.02.72 1.332 0 .912-.18 2.112-.54 3.6l.432.216a53.382 53.382 0 001.8-3.168c.672-1.248 1.08-2.016 1.224-2.304l.684-1.296c1.656-.048 2.892.252 3.708.9.816.648 1.224 1.512 1.224 2.592 0 1.056-.348 2.112-1.044 3.168-1.728.576-3.204 1.152-4.428 1.728a32.077 32.077 0 00-3.636 1.98c-.072 2.664-.288 4.884-.648 6.66-.336 1.752-.84 2.628-1.512 2.628zm19.663 0c-1.152 0-2.352-.372-3.6-1.116-1.248-.768-2.28-1.704-3.096-2.808-.816-1.104-1.224-2.148-1.224-3.132 0-1.752.408-3.672 1.224-5.76.84-2.088 1.992-3.852 3.456-5.292 1.464-1.464 3.12-2.196 4.968-2.196 1.32 0 2.508.288 3.564.864 1.08.576 1.92 1.296 2.52 2.16.6.864.9 1.704.9 2.52 0 1.008-.456 2.004-1.368 2.988-.912.96-2.184 1.812-3.816 2.556-1.632.72-3.492 1.236-5.58 1.548-.024.288-.036.72-.036 1.296 0 .72.024 1.26.072 1.62 1.2-.12 2.388-.444 3.564-.972 1.176-.528 2.46-1.272 3.852-2.232.936.288 1.644.744 2.124 1.368.48.624.72 1.368.72 2.232 0 .72-.444 1.428-1.332 2.124-.864.672-1.944 1.212-3.24 1.62-1.296.408-2.52.612-3.672.612zm-1.512-10.368c1.464-.528 2.688-1.2 3.672-2.016.984-.816 1.476-1.512 1.476-2.088 0-.672-.468-1.128-1.404-1.368a10.154 10.154 0 00-2.34 2.412 10.75 10.75 0 00-1.404 3.06zm24.464 4.68a34.998 34.998 0 01-4.428 2.988c-1.464.84-2.676 1.26-3.636 1.26-.552 0-1.164-.204-1.836-.612a6.795 6.795 0 01-1.656-1.548c-.456-.624-.684-1.2-.684-1.728 0-1.992.396-4.164 1.188-6.516.816-2.376 1.908-4.38 3.276-6.012 1.392-1.632 2.916-2.448 4.572-2.448.648 0 1.284.3 1.908.9a6.733 6.733 0 011.476 1.944c.096-.576.252-1.032.468-1.368.24-.336.48-.504.72-.504.36 0 .912.24 1.656.72.744.456 1.416.972 2.016 1.548.6.576.9 1.008.9 1.296 0 .912-.36 3.348-1.08 7.308a252.287 252.287 0 01-2.304 11.556c-.816 3.744-1.404 5.916-1.764 6.516-.552.864-1.416 1.62-2.592 2.268-1.152.648-2.28.972-3.384.972-1.032 0-2.076-.312-3.132-.936-1.056-.624-1.92-1.392-2.592-2.304-.672-.912-1.008-1.74-1.008-2.484 0-.864.504-1.872 1.512-3.024 1.032-1.152 2.28-2.304 3.744-3.456 1.464-1.128 3.336-2.496 5.616-4.104.408-.312 1.02-.756 1.836-1.332l-.792-.9zm-1.944-10.044c-.84 0-1.632.54-2.376 1.62-.72 1.056-1.332 2.388-1.836 3.996a24.048 24.048 0 00-1.008 4.68c2.256-.936 4.056-2.244 5.4-3.924 1.344-1.68 2.076-3.408 2.196-5.184a4.096 4.096 0 00-1.116-.828c-.432-.24-.852-.36-1.26-.36zm1.512 15.84c-4.08 3.192-6.12 5.472-6.12 6.84 0 .48.204.888.612 1.224.432.36.972.648 1.62.864.72-.84 1.38-1.98 1.98-3.42.6-1.44 1.236-3.276 1.908-5.508z" fill="#000"/><g clip-path="url(#clip0)" fill="#000"><path d="M59.503 12.21a3.49 3.49 0 00-2.156-1.609L35.312 5.013a3.491 3.491 0 00-2.664.386 3.494 3.494 0 00-1.61 2.157l-1.176 4.641-7.365-7.71a3.492 3.492 0 00-2.46-1.087 3.486 3.486 0 00-2.51.972L1.087 20.075a3.492 3.492 0 00-1.086 2.461c-.022.94.324 1.83.972 2.51l14.144 14.807v13.233a3.52 3.52 0 003.515 3.515h22.734a3.52 3.52 0 003.516-3.515v-1.399l1.921.488a3.495 3.495 0 002.663-.386 3.495 3.495 0 001.61-2.157l8.815-34.76c.23-.91.093-1.856-.388-2.663zm-44.386 5.017v17.537L3.516 22.617 19.955 6.915l6.492 6.796h-7.814a3.52 3.52 0 00-3.516 3.516zm26.25 35.859H18.632V17.227h22.733l.002 32.116a1.754 1.754 0 000 .159v3.583h-.002zm6.301-4.319l-2.786-.706V17.227a3.52 3.52 0 00-3.516-3.516h-8.261l1.342-5.29 22.036 5.587-8.815 34.76z"/><path d="M36.448 38.308c1.315-1.242 1.948-3.12 1.692-5.024-.242-1.811-1.274-3.365-2.76-4.158a4.777 4.777 0 00-2.265-.578A4.638 4.638 0 0030 29.758a4.638 4.638 0 00-3.116-1.21c-.782 0-1.544.195-2.265.579-1.485.792-2.517 2.346-2.76 4.157-.255 1.904.378 3.782 1.693 5.024l.035.032 5.241 4.689a1.754 1.754 0 002.344 0l5.242-4.689.035-.032zm-2.4-2.57L30 39.36l-4.048-3.622c-.478-.461-.71-1.22-.608-1.987.093-.692.44-1.262.928-1.522a1.3 1.3 0 01.612-.165c.635 0 1.327.6 1.36 1.713a1.758 1.758 0 003.514 0c.031-1.113.724-1.713 1.358-1.713.2 0 .407.056.611.164.49.261.837.83.93 1.523.103.767-.13 1.526-.608 1.987zM23.437 23.79a1.758 1.758 0 100-3.516 1.758 1.758 0 000 3.515zM36.562 50.038a1.758 1.758 0 100-3.515 1.758 1.758 0 000 3.515z"/></g><defs><clipPath id="clip0"><path fill="#fff" d="M0 0h60v60H0z"/></clipPath></defs></svg>