<svg width="74" height="74" fill="none" xmlns="http://www.w3.org/2000/svg"><path d="M18.761 13.708l8.242 8.206-5.089 5.088-8.206-8.241-8.205 8.242-5.089-5.089 8.242-8.206L.414 5.502 5.503.414l8.206 8.242L21.913.414l5.089 5.089-8.242 8.205zm54.825 38.378l-5.088-5.088-8.206 8.241-8.206-8.241-5.088 5.088 8.241 8.206-8.241 8.206 5.088 5.088 8.206-8.242 8.206 8.242 5.088-5.088-8.242-8.206 8.242-8.206zM67.1 18.474L55.562 33.417 49.9 28.866l4.193-5.375a32.537 32.537 0 00-23.865 20.138 16.125 16.125 0 11-9.353-3.046c.939.004 1.875.1 2.795.287a40.383 40.383 0 0129.204-24.438l-5.124-3.87L52.301 6.9l14.8 11.574zM29.834 56.708a8.958 8.958 0 10-17.916 0 8.958 8.958 0 0017.916 0z" fill="#FFA757"/></svg>