<svg width="60" height="54" viewBox="0 0 60 54" fill="none" xmlns="http://www.w3.org/2000/svg">
<path d="M59.5028 8.81049C59.022 8.00355 58.2557 7.43239 57.3466 7.20248L35.3117 1.61403C34.4013 1.38259 33.4555 1.52005 32.6483 2.00051C31.8416 2.48085 31.2701 3.24642 31.0388 4.15707L29.8616 8.79842L22.4968 1.08763C21.8484 0.408664 20.9744 0.0227728 20.036 0.00109352C19.0975 -0.0221091 18.2064 0.324642 17.5272 0.973262L1.08751 16.6761C0.408542 17.3245 0.0226515 18.1987 0.000972186 19.1376C-0.0208243 20.0766 0.324521 20.9676 0.973141 21.6468L15.1168 36.4545V49.6867C15.1168 51.6252 16.6939 53.2022 18.6324 53.2022H41.3663C43.3048 53.2022 44.8819 51.6252 44.8819 49.6867V48.2885L46.8032 48.7759C47.0921 48.8493 47.3844 48.8856 47.6749 48.8856C48.2998 48.8856 48.9156 48.7174 49.4666 48.3896C50.2733 47.9092 50.8449 47.1436 51.0763 46.233L59.8912 11.4722C60.1213 10.5622 59.9835 9.61684 59.5028 8.81049V8.81049ZM15.1168 13.8281V31.3648L3.51547 19.2183L19.9546 3.51583L26.4464 10.3126H18.6324C16.6939 10.3126 15.1168 11.8896 15.1168 13.8281V13.8281ZM41.3663 49.6868H18.6324V13.8281H41.3663L41.3683 45.9443C41.3657 45.9976 41.3661 46.0505 41.3683 46.1032L41.3685 49.6866C41.3685 49.6867 41.3678 49.6868 41.3663 49.6868ZM47.6683 45.3685L44.8819 44.6619V13.8281C44.8819 11.8896 43.3048 10.3126 41.3663 10.3126H33.1047L34.4468 5.02166L56.4832 10.6093L47.6683 45.3685Z" fill="black"/>
<path d="M36.4478 34.909C37.763 33.667 38.3956 31.7889 38.1402 29.885C37.8974 28.0741 36.866 26.52 35.3798 25.727C34.6598 25.3437 33.898 25.1493 33.1154 25.1493C31.9281 25.1493 30.8428 25.6016 29.9993 26.3595C29.1558 25.6016 28.0706 25.1493 26.8833 25.1493C26.1006 25.1493 25.3388 25.3436 24.6175 25.7277C23.1326 26.5201 22.1013 28.0741 21.8585 29.8851C21.6031 31.789 22.2358 33.6672 23.5509 34.9091C23.5625 34.92 23.574 34.9307 23.5858 34.9411L28.8274 39.6299C29.1611 39.9284 29.5802 40.0776 29.9993 40.0776C30.4185 40.0776 30.8376 39.9284 31.1713 39.6299L36.4129 34.9411C36.4247 34.9305 36.4362 34.9199 36.4478 34.909V34.909ZM34.0482 32.3395L29.9993 35.9613L25.9505 32.3395C25.4727 31.878 25.24 31.1186 25.3428 30.3522C25.4357 29.6598 25.7831 29.0905 26.2711 28.8302C26.477 28.7205 26.683 28.665 26.8833 28.665C27.5181 28.665 28.2102 29.2652 28.2423 30.3778C28.2697 31.3283 29.0484 32.0847 29.9993 32.0847C30.9503 32.0847 31.729 31.3283 31.7564 30.3778C31.7884 29.2652 32.4806 28.665 33.1154 28.665C33.3157 28.665 33.5217 28.7207 33.7262 28.8295C34.2156 29.0906 34.563 29.6598 34.6559 30.3522C34.7587 31.1186 34.526 31.8779 34.0482 32.3395Z" fill="black"/>
<path d="M23.437 20.3906C24.4078 20.3906 25.1948 19.6036 25.1948 18.6328C25.1948 17.662 24.4078 16.875 23.437 16.875C22.4662 16.875 21.6792 17.662 21.6792 18.6328C21.6792 19.6036 22.4662 20.3906 23.437 20.3906Z" fill="black"/>
<path d="M36.5617 46.6396C37.5326 46.6396 38.3195 45.8526 38.3195 44.8818C38.3195 43.911 37.5326 43.124 36.5617 43.124C35.5909 43.124 34.8039 43.911 34.8039 44.8818C34.8039 45.8526 35.5909 46.6396 36.5617 46.6396Z" fill="black"/>
</svg>
